<svg width="15" height="17" viewBox="0 0 15 17" fill="none" xmlns="http://www.w3.org/2000/svg">
<path d="M14.2579 7.4723C12.8677 7.47555 11.5115 7.05103 10.381 6.2587V11.7847C10.3806 12.8081 10.0611 13.8071 9.46525 14.648C8.86936 15.4889 8.02549 16.1316 7.04647 16.4902C6.06746 16.8488 4.99995 16.9062 3.98671 16.6548C2.97346 16.4033 2.06277 15.855 1.37641 15.0831C0.69004 14.3111 0.260717 13.3524 0.145842 12.3352C0.0309679 11.3179 0.236018 10.2905 0.733574 9.39045C1.23113 8.49036 1.99748 7.76046 2.93014 7.29834C3.86281 6.83621 4.91733 6.6639 5.95272 6.80443V9.58381C5.47892 9.43789 4.97015 9.44228 4.49906 9.59637C4.02797 9.75045 3.61865 10.0463 3.32956 10.4418C3.04046 10.8372 2.88638 11.312 2.8893 11.7983C2.89223 12.2846 3.05202 12.7576 3.34585 13.1497C3.63968 13.5418 4.05253 13.8329 4.52544 13.9815C4.99835 14.1302 5.50714 14.1287 5.97915 13.9773C6.45115 13.826 6.86224 13.5324 7.1537 13.1386C7.44516 12.7449 7.60209 12.271 7.60208 11.7847V0.981934H10.381C10.3791 1.21171 10.3987 1.44117 10.4397 1.66742C10.5363 2.17249 10.7371 2.65296 11.0298 3.07945C11.3225 3.50593 11.701 3.86946 12.1422 4.14781C12.7697 4.55412 13.5056 4.77068 14.2579 4.77053V7.4723Z" fill="#E3B6F9"/>
</svg>
