<svg width="19" height="18" viewBox="0 0 19 18" fill="none" xmlns="http://www.w3.org/2000/svg">
<path fill-rule="evenodd" clip-rule="evenodd" d="M7.33147 6.38966H10.5832V8.00939C11.0516 7.07783 12.2528 6.24082 14.0573 6.24082C17.5165 6.24082 18.3378 8.09519 18.3378 11.4975V17.7987H14.8356V12.2724C14.8356 10.3348 14.3672 9.24214 13.1748 9.24214C11.5209 9.24214 10.8336 10.4197 10.8336 12.2715V17.7987H7.33147V6.38966V6.38966ZM1.3262 17.6499H4.82832V6.24082H1.3262V17.6499V17.6499ZM5.33 2.52069C5.33013 2.81423 5.27192 3.10487 5.15874 3.37572C5.04556 3.64657 4.87968 3.89222 4.67073 4.0984C4.24732 4.5192 3.67421 4.75474 3.07726 4.75329C2.48137 4.75289 1.90958 4.51795 1.48555 4.09927C1.27736 3.89239 1.11203 3.64647 0.999053 3.37559C0.886073 3.1047 0.827655 2.81419 0.827148 2.52069C0.827148 1.92796 1.06354 1.36061 1.48642 0.942108C1.91008 0.522867 2.48211 0.287824 3.07814 0.288086C3.67525 0.288086 4.24785 0.523604 4.67073 0.942108C5.09273 1.36061 5.33 1.92796 5.33 2.52069Z" fill="#E3B6F9"/>
</svg>
