<svg width="15" height="15" viewBox="0 0 15 15" fill="none" xmlns="http://www.w3.org/2000/svg">
<path d="M7.4047 5.48565C6.08468 5.48565 5.00744 6.50622 5.00744 7.75679C5.00744 9.00736 6.08468 10.0279 7.4047 10.0279C8.72472 10.0279 9.80196 9.00736 9.80196 7.75679C9.80196 6.50622 8.72472 5.48565 7.4047 5.48565ZM14.5947 7.75679C14.5947 6.8163 14.6037 5.88434 14.5479 4.94556C14.4922 3.85514 14.2296 2.8874 13.388 2.09003C12.5445 1.29096 11.5248 1.04391 10.3739 0.991094C9.38114 0.938277 8.39742 0.946796 7.4065 0.946796C6.41378 0.946796 5.43006 0.938277 4.43915 0.991094C3.28817 1.04391 2.26668 1.29266 1.42503 2.09003C0.581584 2.8891 0.320817 3.85514 0.265067 4.94556C0.209316 5.88604 0.218308 6.81801 0.218308 7.75679C0.218308 8.69557 0.209316 9.62924 0.265067 10.568C0.320817 11.6584 0.583383 12.6262 1.42503 13.4235C2.26848 14.2226 3.28817 14.4697 4.43915 14.5225C5.43186 14.5753 6.41558 14.5668 7.4065 14.5668C8.39921 14.5668 9.38294 14.5753 10.3739 14.5225C11.5248 14.4697 12.5463 14.2209 13.388 13.4235C14.2314 12.6245 14.4922 11.6584 14.5479 10.568C14.6055 9.62924 14.5947 8.69727 14.5947 7.75679ZM7.4047 11.2512C5.36352 11.2512 3.71619 9.69057 3.71619 7.75679C3.71619 5.823 5.36352 4.26234 7.4047 4.26234C9.44588 4.26234 11.0932 5.823 11.0932 7.75679C11.0932 9.69057 9.44588 11.2512 7.4047 11.2512ZM11.2443 4.93533C10.7677 4.93533 10.3828 4.57073 10.3828 4.11923C10.3828 3.66773 10.7677 3.30312 11.2443 3.30312C11.7209 3.30312 12.1057 3.66773 12.1057 4.11923C12.1059 4.22644 12.0837 4.33262 12.0404 4.4317C11.9972 4.53077 11.9337 4.62079 11.8537 4.6966C11.7737 4.77241 11.6787 4.83252 11.5741 4.87349C11.4695 4.91445 11.3574 4.93547 11.2443 4.93533Z" fill="#E3B6F9"/>
</svg>
